<?xml version="1.0" standalone="no"?>
<!DOCTYPE svg PUBLIC "-//W3C//DTD SVG 1.1//EN" "http://www.w3.org/Graphics/SVG/1.1/DTD/svg11.dtd" >
<svg xmlns="http://www.w3.org/2000/svg" xmlns:xlink="http://www.w3.org/1999/xlink" version="1.1">
<metadata>
Created by FontForge 20170731 at Thu May 30 00:38:44 2019
 By Aleksey,,,
Copyright (c) 2017 by Dikas Studio. All rights reserved.
</metadata>
<defs>
<font id="HolidayInMondayPersonalUse" horiz-adv-x="250" >
  <font-face 
    font-family="Holiday In Monday"
    font-weight="400"
    font-stretch="normal"
    units-per-em="1000"
    panose-1="0 0 0 0 0 0 0 0 0 0"
    ascent="750"
    descent="-250"
    x-height="423"
    cap-height="567"
    bbox="-75 -291.083 822.8 675.714"
    underline-thickness="50"
    underline-position="-200"
    unicode-range="U+000D-007A"
  />
<missing-glyph 
 />
    <glyph glyph-name=".notdef" 
 />
    <glyph glyph-name=".null" horiz-adv-x="0" 
 />
    <glyph glyph-name="nonmarkingreturn" horiz-adv-x="333" 
 />
    <glyph glyph-name="NULL" horiz-adv-x="0" 
 />
    <glyph glyph-name="NULL" horiz-adv-x="0" 
 />
    <glyph glyph-name="CR" unicode="&#xd;" 
 />
    <glyph glyph-name="space" unicode=" " 
 />
    <glyph glyph-name="numbersign" unicode="#" horiz-adv-x="655" 
d="M584 344q17 0 43.5 -7t26.5 -22q1 -5 -6 -11.5t-26 -11.5t-45 -3q-34 0 -51 -1q-90 -106 -134 -161l20 -2q21 0 32 -3q1 0 7.5 -1.5t11 -3.5t10 -4.5t8 -7t1.5 -9.5q1 -4 -7.5 -10.5t-27.5 -11t-42 -4.5h-59h-2l-34 -40q-12 -14 -37 -42q-11 -13 -23 -22q-2 -2 -6.5 -4
t-5.5 -3l-6 -2q-4 0 -5 -1q-13 -2 -14 11v5v1v-1l1 1q-1 1 -1 3v5l4 10q2 9 8 16q1 3 7 11l15 22l23 31q-11 1 -29 1q-19 0 -28.5 1t-27.5 1h-44l-38 -44q-20 -25 -37 -42q-13 -15 -22 -22q-2 -2 -6 -4l-6 -3q-1 0 -3 -1t-3 -1h-1q-4 0 -5 -1q-13 -1 -13 11v5l-1 1l1 -1
q-1 1 -1 4v2q1 1 1 3q3 9 4 10q3 11 7 16l7 11l16 22l25 35q-66 0 -66 30q0 27 75 27q7 0 15.5 0.5t13 1t7.5 0.5q5 6 20 25.5t23 29.5l80 97q9 9 -4 10q-7 0 -17.5 1t-24 3.5t-21.5 8.5t-5 14q4 14 32.5 21t42.5 7q9 0 14 1t14 1h26q17 19 23 24q10 11 19 20.5t15.5 15
t11 10t7.5 6.5t4 3t10 4q15 6 24 -1q12 -6 9.5 -18t-6.5 -18.5t-8 -10.5q-2 -2 -4 -5t-3 -4l-18 -21l-1 -1v-1l-3 -4q18 0 27.5 -0.5t28.5 -0.5l67 -2q5 7 26 28q50 54 68 59q15 6 24 -1q11 -9 6 -27l-4 -11q-2 -4 -7 -9l-8 -9q-7 -7 -17 -21l-2 -2q-1 -3 -3 -5l-5 -6
q3 -1 12 -1zM315 131l45 58l81 97l3 4h-31q-19 0 -28.5 1t-27.5 1h-34q-61 -70 -132 -158q19 0 32.5 -1t31.5 -1q10 0 30 -0.5t30 -0.5z" />
    <glyph glyph-name="at" unicode="@" horiz-adv-x="547" 
d="M292 249v-1h3h-1h-1q0 1 -1 1zM546 285q1 -22 -4 -52q-4 -21 -16 -49q-9 -21 -21 -36q-36 -49 -80 -69q-30 -17 -64 -18q-17 0 -32 3q-14 3 -34 18q-12 12 -17 28q-40 -21 -80 -22q-28 0 -51 20q-21 18 -21 52q-1 41 25 79q27 41 53 58q11 7 33 15q19 5 33 4q17 0 31 -5
q16 -8 21 -13l5 -6l5 6q6 10 15 12q9 3 20 -3q9 -5 12 -15q3 -9 -3 -20l-3 -6q0 -2 -1 -2q-1 -3 -2.5 -7t-1.5 -6q-2 -5 -4.5 -14.5t-3.5 -12.5q-2 -4 -3 -11.5t-3 -11.5q-1 -5 -4 -15q0 -3 -0.5 -6t-1 -5t-0.5 -3q-2 -22 -2 -31q1 -1 4 -1h13q11 2 19 5q21 12 26 16
q16 13 29 29q13 18 18 32q5 13 10 34q2 17 0 35q-1 10 -5 18q-6 12 -11 17q-7 10 -17 17q-12 9 -31 18q-24 9 -50 12h1q-2 0 -3 0.5t-3 0.5q-31 5 -61 0q-34 -6 -50 -13q-25 -12 -46 -27q-25 -21 -41 -42q-18 -24 -33 -55q-12 -32 -16 -60q-2 -18 0 -35q1 -10 7 -28
q13 -23 17 -29q12 -14 26 -26q8 -7 22 -13q17 -6 35 -9q21 -3 40 0q18 2 31 8q-8 -3 -12 -5q15 6 16 7h1q16 10 36 5q18 -4 29 -22q10 -15 4 -37q-3 -12 -13 -22v1l-14 -12l-6 -3q-9 -6 -25 -10q-7 -2 -14.5 -3.5t-16.5 -3t-14 -2.5q-18 -1 -37 0q-52 3 -96 25
q-37 19 -76 69q-14 19 -20 35q-11 25 -15 48q-5 30 -4 52q7 45 10 56q7 28 22 62q14 29 32 53q28 37 54 58q21 17 37 27q21 12 42 21q39 16 87 19q65 6 131 -20q26 -10 38 -17q20 -11 35 -23q31 -26 49 -69q7 -16 9 -49zM296 248h-2l-2 1l-10 3h-8l-12 -4q-2 -1 -6.5 -3.5
t-6.5 -3.5l-11 -12q-11 -14 -22 -37q-5 -11 -6 -20h3l28 8q11 4 25 15l20 19l2 2v1q1 1 1 2h1l9 25l-2 3q-1 0 -2 1h1z" />
    <glyph glyph-name="A" unicode="A" horiz-adv-x="444" 
d="M492 -189q4 -7 0 -18q-1 -3 -3 -5q-4 -4 -5 -7q-1 0 -1 -1q1 1 2 4q-10 -17 -35 -17q-15 0 -24 4q-17 4 -29 14q-5 3 -21 19q-22 25 -34 57q-8 18 -12 36q-19 58 -33 180q-5 55 -11 172h-3q-28 3 -64 -2q-18 -2 -27 -5q-14 -27 -34 -59q-6 -9 -16 -26t-15 -25
q-16 -30 -29 -49l-30 -43q-12 -19 -16 -23l-12 -11q-6 -4 -12 -5q-6 -2 -12.5 1.5t-8.5 9.5q-4 18 13 55l21 47q0 -2 -2 -4q8 17 26 51q3 6 8 16.5t9 15.5l-23 -15q0 -1 -1 -1l-1 -1l-3 -3q-1 0 -2 -1l-1 -1l1 1l-1 -1l-2 -2q0 -1 -1 -1v-1v-1q-5 -14 -19 -16t-23 11
q-16 21 7 52q8 11 25 26q36 34 101 60l51 92l44 79l18 33q22 38 39 51q3 5 16 10q2 0 5.5 0.5t4.5 0.5q12 0 23 -8h1q16 -10 18 -24q4 -23 4 -65l-1 -99q0 -99 1 -100q6 -173 16 -245q3 -11 5 -32q8 -42 13 -63q9 -36 15 -52q5 -12 15 -26l12 -12l11 -10q3 -1 6 -4l2 -1h3h1
q2 -1 4 -1q0 -1 1 -1t1 -0.5t-3 0.5q-3 0 1 -1h4q0 -1 1 -1v1q0 -1 1 -1l1 -1h2h2q10 0 15 -8zM276 391l-39 -68q15 1 46 1h1v81q-7 -12 -8 -14zM472 -181h1h-1zM483 -220zM471 -179h-1q-1 1 -4 2q3 0 5 -2zM52 172q1 1 2 1q-1 0 -2 -1z" />
    <glyph glyph-name="B" unicode="B" horiz-adv-x="519" 
d="M553 498q16 -31 15 -61q0 -33 -17 -62q-10 -21 -34 -45q-26 -22 -48 -35q-51 -29 -104 -48q41 -32 68 -73q17 -25 25 -54q8 -34 7 -62q-2 -56 -30 -102q-23 -38 -67 -73q-3 -1 -9 -5.5t-10 -6.5l-34 -15q-33 -12 -58 -16q-70 -13 -126 8q-61 20 -98 68q-37 45 -34 109
t47 103q21 19 43 0q9 -9 8.5 -22t-8.5 -21l-5 -6q-6 -7 -10 -17q-5 -11 -6 -23q-2 -13 0 -27q1 -7 7 -26q9 -18 15 -24q9 -13 21 -22q13 -10 32 -18q16 -6 40 -11q24 -3 49 0q38 8 68 19q7 3 17 9q1 1 3 2l4 2q25 20 41 40q11 13 18 30q6 18 7 27q2 17 0 34q-1 3 -3.5 14
t-4.5 17q-6 15 -20 34q-11 15 -37 37q-30 21 -63 36q2 -2 5 -3t5 -2l-19 8q-2 -2 -3 -7t-2 -7q-6 -14 -16 -42.5t-15 -42.5l-15 -43l-8 -22q-7 -22 -21 -31q-6 -3 -11 -4q-12 -6 -24 -3q-14 2 -20 15q0 1 -1 2.5t-2 2.5t-1 2q-10 19 -3 37q2 4 3.5 11t3.5 10q7 15 16 42
l60 149l30 78q29 73 34 84q16 38 25 57q5 11 17.5 14t21.5 -1q25 -12 18 -37q-4 -19 -14 -53q-1 -4 -3.5 -13t-4.5 -13l-8 -26l-21 -59l12 3t12 4q46 14 67 24q45 19 80 42l19 19q9 16 10 17l4 15v9q0 2 -1 4.5t-2 4.5t-1 3q-1 2 -10 18q-9 11 -23 22q-21 16 -39 23
q-42 15 -76 19q-53 8 -106 0t-102 -27q-16 -8 -23 -13l-1 -1q1 0 1 -0.5t1 -0.5q3 0 4 -1h2q19 -3 22 -21q1 -8 -3 -15q-5 -10 -14 -11q-16 -2 -25 -2q-17 2 -29 8q-16 8 -24 21q-10 20 -4 40q4 17 18 30q14 15 45 28q29 14 55 21q107 31 220 11q56 -12 96 -34
q24 -13 45 -33q24 -22 34 -44zM108 501l1 1q-1 0 -1 -1zM325 -56l6 5z" />
    <glyph glyph-name="C" unicode="C" horiz-adv-x="315" 
d="M464 514q2 -8 -5 -12t-14 2l-4 3l-3 3l-4 3l-2 2h1q-4 1 -8 5q-2 0 -4 2q-1 0 0 -1l-1 1h-2h-5h-9q-12 0 -19 -1q1 1 7 1q-17 -2 -32 -9l8 4q-22 -10 -41 -25q1 1 4 2.5t4 3.5q-42 -32 -80 -84l7 9l-28 -35l7 10q-61 -79 -106 -184q1 2 2 6t3 6q-30 -68 -40 -132
q0 2 0.5 6t0.5 7q-5 -31 0 -61l-2 13q6 -30 13 -46q-2 4 -5 12q7 -17 19 -33l-8 10q10 -12 22 -22l-10 8q16 -13 31 -18l-11 4q19 -7 26 -11l-10 4l14 -3q-2 0 -6 0.5t-5 0.5q12 0 15 -2q1 0 13 -5q-7 4 -9 4h1q1 -1 2 -1q7 -3 17 -11l-25 11q12 0 15 1q-2 0 -5 -0.5
t-4 -0.5l17 3l22 3q11 1 18 -9t4 -20q-6 -22 -26 -34q-1 -1 -11 -7q-14 -6 -21 -7q5 3 13 9t9 7q-8 -11 -17 -16t-26 -7q-13 -2 -17 -1q2 0 6 0.5t6 0.5q-14 -2 -17 -2t-17 2l12 -2q-15 1 -30 6q-53 17 -86 74q-26 44 -28 104q-1 49 18 114q17 53 39 98q18 42 42 81
q24 40 60 82q15 20 29 34q16 16 34 31q43 40 81 58q55 26 101 11q2 -2 6.5 -3t7.5 -3l11 -8q2 -2 6.5 -6t6.5 -6q18 -15 22 -34z" />
    <glyph glyph-name="D" unicode="D" horiz-adv-x="532" 
d="M524 491q51 -77 24 -197q-19 -85 -71 -160q-29 -43 -59 -69q-24 -22 -37 -31q-1 -1 -7.5 -6t-10.5 -7q-11 -7 -21 -10q-12 -7 -41 -20q-39 -17 -59 -23q-57 -17 -111 -17q-67 -2 -117 27q-24 13 -10 39q4 8 16 13q8 3 22 -3l1 -1q1 0 2 -0.5t3 -0.5q4 -3 10 -3
q5 -2 18 -4q2 0 3 -0.5t3 -0.5q2 7 6 13l12 27q9 18 23 52q8 17 28 70q32 82 49 134q4 12 23 65l11 31q1 10 5 16l9 19q8 18 30 12q8 -2 14 -10t6 -16v-8t-2 -10q0 -2 -2 -12l-6 -24q-10 -39 -13 -50q-25 -93 -60 -183q-24 -65 -35 -88l-16 -38q1 1 6 1q44 7 90 25
q12 5 45 25q7 9 14 13l7 6q38 31 71 72q26 33 52 89q21 50 28 97q5 31 1 55q-3 21 -10 36t-17 28l-18 19q-1 1 -8 5t-11 6q-7 3 -20 5q-11 1 -32 1l-31 -2q-32 -5 -72 -19q-2 -1 -5.5 -2.5t-4.5 -1.5t-2 -0.5t-3 -0.5v-1q-7 -2 -8 -3q-2 0 -4 -1h1h-2h-4l-1 -1h-1
q-31 -18 -35 -21q-13 -8 -22.5 5t0.5 23q4 2 9 7t8 7l20 15h1l1 1l3 4l12 9q12 8 19 11q2 1 5.5 3t4.5 3q1 0 2 1q1 0 3 1l6 3q40 18 88 27q58 9 108 -14q41 -23 66 -62zM227 469l-1 -1zM205 504h1h-1z" />
    <glyph glyph-name="E" unicode="E" horiz-adv-x="429" 
d="M372 142q10 -38 4 -81q1 1 1 8q-1 -23 -16 -58q0 1 1 3q-2 -7 -6 -13q-40 -70 -127 -85q-66 -9 -106 3q-40 10 -69 41q-52 54 -54 139q-2 81 44 149q24 36 56 63q22 17 40 27q-12 28 -13 57q-1 65 48 121q12 13 27 23q7 6 31 17q36 14 67 5q31 -8 52.5 -33t23.5 -58
q1 -33 -27 -67q-12 -13 -27 -24q-11 -9 -31 -16q-14 -5 -23 10q-8 14 3 25l21 19v1l4 3q6 5 9 9q3 1 6 4t2 5q0 -1 -1 -3v1q1 1 1 2l3 4l2 4q1 3 3 5v1l2 6q0 3 1 4v1v5l-2 6v1l-2 2l-3 4q-2 2 -3 2l-2 2l4 -3q-4 3 -8 5q-2 0 -2 2q-2 0 -3 1l-11 3h-15q-11 -3 -13 -4
q-3 -1 -6 -3t-7 -4.5t-6 -3.5q-10 -9 -19 -19q-10 -16 -14 -25q-6 -16 -7 -25q-1 -12 0 -24q1 -4 2.5 -9.5t1.5 -7.5q1 -1 3 -5t3 -5l9 -9l11 -8q19 -19 5 -44q-4 -9 -17 -15l-6 -2q-18 -8 -22 -10q2 2 5 3t5 2q-28 -11 -47 -27q-18 -15 -33 -33q-15 -22 -25 -43
q-8 -17 -13 -48q-3 -14 -1 -43q3 -17 9 -32q6 -14 13 -22q6 -8 15 -15q7 -5 21 -13q4 -1 12.5 -3.5t12.5 -3.5q35 -2 52 1q18 3 36 9q14 8 21 13q11 8 17 16q11 19 12 22q6 15 9 31q1 11 -1 29q-2 19 -8 33q-4 10 -10 17l2 -2l-1 1l-2 3q-4 3 -5 8l-3 4v1q-13 18 -2 33t33 6
q11 -4 20 -13q7 -7 15 -20q12 -20 18 -43zM287 180l-1 1z" />
    <glyph glyph-name="F" unicode="F" horiz-adv-x="371" 
d="M55 425v-2v2zM745 510q1 -14 -11 -25.5t-26 -11.5q-4 0 -10 0.5t-9 0.5q-66 4 -161 2q-70 0 -162 -5q-24 -2 -69.5 -3.5t-69.5 -3.5q-74 -2 -91 -4q-5 0 -13.5 -0.5t-12.5 -0.5q-3 -1 -14 -3.5t-16 -4.5q-8 -3 -12 -7q-1 0 -1 -1h-1l-2 -2l-3 -3l-2 -3q-2 -6 -3 -6
q0 -3 -1 -4v1v-3q0 -2 -1 -3q1 1 1 3v-1v-6v-2l2 -7q0 -1 1 -2q0 -1 2 -3t2 -4l3 -3l4 -4l1 -1q2 -2 2 -1l4 -3q0 -1 1 -1l19 -11q1 0 2 -1h1h3l1 -1h2h4q2 -1 7 -1q14 0 16 -15q0 -7 -5 -11.5t-11 -4.5q-11 0 -16 1q-2 0 -5.5 0.5t-5.5 0.5v-1h-4q-10 -1 -28 5
q-17 6 -27 16q-20 17 -27 40q-8 27 2 51q11 27 35 45q29 21 61 25l24 3q53 9 130 14q37 2 219 10q80 2 120 1q75 0 114 -3q15 -1 26 -11q11 -11 11 -27zM57 431q0 1 1 3q-1 -1 -1 -3zM61 438q2 2 2 3q0 -1 -1 -2q-1 0 -1 -1zM393 314q6 -9 8 -18q2 -11 -3 -20t-21 -17
q-15 -5 -21 -6q-6 0 -8 -1q-6 0 -28 -2l-57 -4q-5 0 -13 -0.5t-12 -0.5q-3 -8 -8.5 -26t-9.5 -27q-16 -46 -25 -69l-12 -34q-9 -23 -17 -37q-4 -9 -10 -25.5t-9 -24.5q-1 -2 -3 -6.5t-3 -6.5t-3.5 -9.5t-4.5 -11.5q-6 -11 -22 -27q-13 -10 -26 -6q-14 5 -18 18q-2 14 -2 17
v13q0 11 8 33q11 36 17 50l14 45q3 8 8.5 22t9.5 22l33 86q-1 0 -5 0.5t-5 0.5q-22 0 -27 2q-19 9 -20 24q-4 16 13 29q5 2 9.5 3.5t10.5 2.5t10 2q1 0 3 0.5t3 0.5t4 0.5t4 0.5q10 2 13 2q10 2 12 2q26 74 37 113q4 13 15 19t24 3q11 -3 19 -15q6 -9 3 -24q-6 -40 -16 -79
q-2 -8 -2 -9h1l57 6l28 2q8 1 22 -1q20 -7 25 -12z" />
    <glyph glyph-name="G" unicode="G" horiz-adv-x="366" 
d="M280 93zM390 476q2 -14 -11 -28q-9 -10 -20 -3t-8 19l1 1v1v2q-1 1 -1 2v3v2l-1 1q0 1 -2 3q0 2 -1 2q0 1 -1 1l-1 2l-3 3h-1q-1 1 -3 2t-4 3q-3 0 -4 1q-3 0 -4 1h-10h-4q-10 -2 -16 -5l-1 -1q-2 0 -4 -2q-7 -3 -9 -5l-4 -3l-1 -1q-1 0 -2 -1l-4 -3l-24 -26
q-1 -2 -2 -2.5t-1 -2.5q-9 -12 -25 -36l-44 -77q-18 -34 -36 -74q-21 -55 -32 -92q-16 -48 -24 -98q-3 -15 -1 -44l3 -12t4 -12q3 -7 9 -17l10 -10q2 -1 9 -5q6 -3 12 -3q6 -2 14 0q11 2 21 6q15 6 34 20q27 21 48 48q4 5 10 15q5 6 6 10l7 9q0 1 1 2q4 5 4 6l-2 -4
q-1 1 1 3l1 2q2 2 3 5t2 5q0 1 1 2q0 1 1 3q0 -1 -1 -1q1 0 1 1l4 10q2 4 4 11t3 11l2 9q-2 -1 -6.5 -3t-6.5 -4q-4 -2 -9 -5.5t-8 -5.5q-3 -1 -7 -5v1q-3 -3 -3 -4q-15 -11 -29 -28l-12 -14l-9 -9l-9 -6q-9 -6 -19 0t-9 16q0 12 1 15l3 9q6 13 12 22q15 22 29 37
q29 33 70 56q13 7 26.5 3.5t21.5 -16.5v-1q1 -1 1 -2l3 -4q8 -9 8 -29q0 -4 -0.5 -9t-0.5 -9q0 -2 -0.5 -4t-0.5 -4q0 -4 -1 -5q0 -3 1 0l-1 -4q-6 -46 -16 -72q-3 -13 -11 -29q-26 -55 -65 -89q-62 -55 -120 -51q-71 2 -107 71q-16 30 -19 67q-3 28 4 73q9 53 31 114
q27 73 49 115q39 71 60 100q24 34 39 50q17 20 44 40q56 43 109 28q31 -11 45 -36q8 -14 8 -28zM351 473v-1v-1v2zM352 466v1v-1z" />
    <glyph glyph-name="H" unicode="H" horiz-adv-x="387" 
d="M442 577q10 -2 16 -12t2 -20v-1q-3 -10 -9 -29.5t-10 -29.5l-33 -106q6 -4 14 -13q1 -3 4 -6q12 -20 -10 -38q-14 -9 -26 -9h-4q-26 -82 -41 -123l-56 -165q-14 -43 -25 -73q-10 -32 -14 -39q-2 -4 -6 -13.5t-7 -13.5q0 2 1 3v1q-7 -12 -14 -16q-1 0 -2 -1q-1 0 -1 -1
q-11 -10 -22 -5q-12 3 -15 15q-1 1 -1 4q-4 7 -4 16v1v6l3 14q2 5 3.5 15.5t3.5 15.5q4 9 11 34l26 75l60 166l33 92q-54 4 -106 -3q-25 -3 -50 -9q-8 -27 -38 -119q-22 -64 -34 -96q-7 -16 -8 -18q-3 -4 -5 -11l-11 -23l-11 -23l-6 -11q-8 -11 -20 -14q-16 -5 -25 10
q-4 5 -4 10q-2 4 0 18l3 13l8 28q2 5 4 13.5t3 13.5l9 27q30 79 57 159l-14 -6h-1h-1q-2 -2 -5 -2q-2 -2 -5 -3t-5 -2q-20 -9 -31 8q-12 18 8 31q34 21 77 38q9 31 22 64l10 24q2 8 5 13q1 1 1 2q1 2 1 3l2 5q-1 -1 -1 -2q1 1 1 2q8 21 12 28q2 2 3.5 6t3.5 6q1 3 5 7l1 1
q8 14 21 11q7 -2 10.5 -8.5t1.5 -12.5v-5v-8q0 -9 -1 -13q0 -10 -4 -19q0 -2 -0.5 -4t-0.5 -3l-1 -3q-1 -8 -7 -31l-7 -29l-3 -10q32 10 78 13q36 4 73 3h11q5 14 26 68l6 15q0 1 1 2v1l2 4l2 6l10 25l9 24t10 24q8 23 31 18z" />
    <glyph glyph-name="I" unicode="I" horiz-adv-x="154" 
d="M212 562q12 12 26 5q15 -6 15 -22q1 -11 -6 -38l-9 -33q-4 -10 -10 -31t-9 -32l-74 -225l-38 -112q-4 -10 -10 -28t-9 -28l-9 -29q-12 -32 -13 -34q-12 -23 -40 -16q-10 1 -18 12q-6 6 -7 12q0 1 -0.5 4.5t-0.5 4.5q1 13 6 25l5 15q2 7 11 32l21 64q13 38 38.5 112.5
t38.5 111.5q5 12 40 112l21 56l14 33l7 14q2 5 10 15z" />
    <glyph glyph-name="J" unicode="J" horiz-adv-x="352" 
d="M423 576q15 -3 23 -17t4 -29q-1 -1 -1 -2q-2 -8 -6.5 -22t-6.5 -21q-24 -76 -28 -85q-28 -85 -37 -109q-4 -11 -19.5 -52t-24.5 -64q-35 -86 -48 -111q-29 -60 -54 -87q-16 -19 -37 -31q-25 -14 -53 -17q-45 -4 -88 39q-52 52 -47 134q5 75 52 125q27 27 54 34q19 3 31 2
h4q6 0 7 -1q1 0 2.5 -0.5t2.5 -1.5l-1 1l-1 1q3 -2 4 -2l17 -7q14 -9 9 -24q-4 -16 -20 -16h-9q0 -1 -1 -1h-1q-1 0 -2 -1h-5q-1 0 -1 -0.5t-1 -0.5q-2 0 -8 -2q-1 0 -1 -0.5t-1 -0.5q-5 -1 -7 -4q-2 -1 -5.5 -3t-5.5 -3l-14 -14q-10 -16 -14 -25q-6 -16 -11 -40q0 -7 -1 -9
l2 10q-5 -24 -1 -43q1 -4 3.5 -13.5t4.5 -15.5q5 -13 12 -20q6 -8 14 -14t13 -8q1 0 2 -0.5t2 -0.5h7l10 3q3 2 16 9l19 20q11 15 13 19q23 40 50 103q32 79 43 112q36 94 66 192q6 14 17 52l-10 2q-45 7 -51 9q-10 1 -16 5q-1 0 -7 2q-4 0 -6 2l-10 3q-22 7 -17 30
q2 9 11.5 14t18.5 3q1 0 3 -0.5t3 -0.5h5q5 0 6 -1h16l44 -3l56 -2h5q1 0 3 -0.5t3 -0.5z" />
    <glyph glyph-name="K" unicode="K" horiz-adv-x="310" 
d="M427 531v-1v1zM408 569q8 10 18 6t8 -21q-3 -20 -14 -47q-12 -26 -15 -31l-18 -30q-11 -18 -23 -32q-19 -26 -33 -41q-39 -42 -83 -69q-24 -15 -51 -24l6 -27q5 -23 15.5 -67t15.5 -67q13 -52 16 -63q3 -8 9 -29t10 -32q42 -98 93 -98q26 0 48 22q8 8 18 2t6 -16
q-6 -16 -17 -29q-1 -2 -2 -3t-2 -3q-1 0 -3 -2q0 -1 -1 -1q-8 -10 -15 -14q-15 -9 -31 -13t-40 2q-38 13 -70 51t-47 81q-12 27 -36 112l-26 111q0 2 -1 2q-10 -29 -27.5 -83.5t-26.5 -80.5q-9 -29 -17 -47q-2 -3 -4 -8t-3 -7q-8 -20 -32 -18q-12 0 -23 10q-14 13 -9 36
q0 1 1 3l2 9q1 4 2.5 9.5t1.5 7.5q11 34 14 44l74 221q19 56 41 114l20 51l9 24l4 11q0 1 7 15.5t14.5 30t8.5 17.5q2 1 4 4.5t3 5.5h1v1l1 1q1 0 2 1q11 9 21 6q14 -6 15 -15q0 -4 1 -5q0 -5 1 -6l-2 -7q0 2 1 6v-2v-3q-2 -16 -4 -20q-1 -4 -3.5 -14.5t-4.5 -19.5t-3 -10
l-3 -10l-36 -117q20 9 44 27q15 12 55 52q24 24 41 45q4 5 10 14t9 13q24 33 55 64z" />
    <glyph glyph-name="L" unicode="L" horiz-adv-x="176" 
d="M262 -57q8 -8 5 -19t-14 -14q-1 0 -3.5 -1t-4.5 -1.5t-4 -0.5h-4q-1 -1 -5 -1q-1 -1 -3 -1h-2q-14 -2 -21 -2h-6.5h-8.5h-7q-14 0 -44 2q-8 0 -22 0.5t-21 0.5q-13 0 -20 1h-4.5h-5.5h-6v-1q-4 -4 -15 -9l-9 -3q-1 -1 -6 -1q-2 0 -10 2q-14 5 -22 16v1q-11 17 -5 35
q3 9 4 10q1 3 11 31q28 75 45 125l48 134q17 43 52 149l27 75q6 20 13 35q14 36 16 40l6 15q1 2 2.5 6.5t3.5 6.5l5 6q8 8 20 8q9 1 15.5 -5.5t7.5 -15.5v-1v1v-2q2 -9 0 -17q-3 -8 -5 -24v1q-2 -14 -4 -17q-18 -76 -42 -150q-7 -23 -15.5 -47.5t-18.5 -55t-16 -47.5
q-41 -120 -45 -131q-4 -14 -17 -50.5t-16 -45.5h7q46 0 92 -6q32 -6 44 -13q2 0 4 -2t3 -2q3 -1 6 -4q10 -6 15 -11z" />
    <glyph glyph-name="M" unicode="M" horiz-adv-x="521" 
d="M183 483l3 7q0 -1 -1 -2q-1 -2 -1 -3q-1 -1 -1 -2zM447 -133v-1v1zM447 -134h1h-1zM619 497q4 -13 -4 -28l-4 -8l-23 -48q-1 -2 -14 -31.5t-20 -45.5q-9 -21 -25 -63q-25 -62 -45 -131q-17 -61 -27 -121q-5 -36 -1 -65q1 -4 3.5 -15.5t4.5 -17.5q5 -6 6 -10h1q0 -1 5 -7
v-1q12 -14 3 -28l-4 -5q-10 -13 -28 -5q-1 0 -2 1q1 -1 2 -1h-1l-7 3h-1q0 1 -1 1l-7 6q-43 35 -43 121q0 71 26 161q22 74 52 151q-71 -81 -156 -188l-15 -20q-8 -12 -12 -17q-3 -6 -7 -10q-8 -8 -24 -10q-14 0 -24 10q-3 2 -5 8l-2 2v1l-1 2q-4 7 -6 22q-2 22 -2 28
q-1 14 -3 40t-4 39q-6 64 -7 96q-13 -42 -39.5 -118t-31.5 -91l-34 -95q-9 -25 -11 -32q-6 -16 -12 -27q-1 -2 -3 -4q0 -2 -2 -3q-1 0 -1 -1l-9 -7q-1 -1 -2 -1q-18 -11 -34 -1q-12 9 -16 20v2v1q-4 10 -1 21q2 4 4 11t3 11q11 30 13 35l72 203l44 124q20 53 23 61
q7 19 25 66q2 2 3.5 6.5t2.5 6.5q2 9 5 14l2 9q3 8 5 12l4 5q8 9 20 7.5t18 -12.5q6 -10 6 -21v-5q1 -1 1 -7l3 -19q-1 1 -1 7q2 -19 10 -111l9 -99q2 -38 6 -77q1 1 2 3q1 1 2 3q63 76 131 155q31 36 68 75q5 6 10.5 12t12.5 13.5t11 11.5l19 18q7 7 10 8l4 5q3 3 6 4
q20 21 47 7q13 -6 17 -22zM476 -95l-1 1z" />
    <glyph glyph-name="N" unicode="N" horiz-adv-x="484" 
d="M621 674q15 -6 12 -25q-1 -4 -4 -21q-1 -4 -3.5 -10t-3.5 -10l-15 -41q-2 -3 -3.5 -9.5t-3.5 -10.5q-2 -3 -3 -10t-3 -11q-13 -33 -15 -40q-14 -36 -52.5 -133t-58.5 -151q-10 -24 -28 -71.5t-27 -71.5l-27 -72q-3 -6 -7.5 -18t-6.5 -17q-8 -21 -11 -26l-11 -15
q-7 -10 -18 -14q-6 -1 -12 0q-16 -5 -24 10q-29 59 -49 161q-27 126 -31 243l-2 32q-19 -61 -61 -183q-8 -20 -21.5 -60t-21.5 -60q-5 -12 -22 -58q-3 -7 -13 -34l-9 -18q-1 -3 -4 -6q-4 -9 -14 -15q-12 -8 -28 -1.5t-19 20.5q-4 10 1 23l2 9l6 17q8 22 13 33q4 11 12.5 33
t12.5 33q49 125 88 238q7 18 21 58.5t22 62.5l5.5 16.5t4.5 12.5q0 1 1.5 4.5t2.5 5.5q1 0 1 2l2 4l5 14q1 4 3.5 10t4.5 10.5t3 9.5l6 15q1 6 5 12l7 9q8 11 24 4q5 -2 9 -7l6 -6q5 -8 6 -16q2 -14 2 -16q0 -4 0.5 -11.5t0.5 -11.5q0 -8 0.5 -22t0.5 -21q1 -24 3 -73t3 -74
q5 -74 15 -146q3 -21 14 -91l8 -41l27 68q32 84 114 285q15 39 62 148q6 17 16 34q4 6 9.5 18t8.5 17q14 31 16 34q3 9 9 17q2 5 11 16q10 15 26 9z" />
    <glyph glyph-name="O" unicode="O" horiz-adv-x="448" 
d="M497 522q5 -16 -11 -22q-16 -5 -23 8q-2 4 -6.5 10t-6.5 9l-2 2l-4 5l-8 8l-8 8l1 -1q-1 0 -1 0.5t-1 0.5t-2 1t-3 2l-2 1q-2 2 -3 2l-10 3q1 0 4 -0.5t4 -0.5q-1 0 -15 2q2 0 4.5 -0.5t3.5 -0.5q-1 0 -3.5 0.5t-4.5 0.5q-12 0 -15 1q2 -1 8 -1h-10q2 1 9 1q-7 -1 -18 -1
q7 0 9 1q-2 0 -8.5 -1.5t-10.5 -1.5q2 0 5 0.5t5 0.5q-15 -2 -27 -8l9 4q-25 -11 -43 -26q1 1 4 3t4 3l-16 -12l8 6q-42 -33 -85 -88q2 1 4 4t3 5q-16 -21 -19 -24q2 1 4 4t3 5q-21 -29 -23 -32q-41 -59 -64 -112q2 2 3 5.5t2 5.5q-33 -80 -45 -166q2 10 2 12
q-9 -73 -1 -120q-2 10 -2 13q5 -34 14 -58l-4 11q6 -15 15 -27q-2 2 -4 5t-3 4q6 -8 14 -14q-1 2 -4 4t-5 3q8 -6 13 -8q-3 3 -11 5q6 -3 13 -3q-2 0 -6 0.5t-6 0.5q9 0 14 1l-12 -2q9 1 29 8l-11 -4q20 7 50 30q-2 -2 -6 -4q-2 -2 -4 -3q45 35 90 93q-3 -6 -7 -10l24 33
q39 57 69 127l-4 -11q23 56 33 115l-2 -12q6 36 1 79q0 -2 0.5 -6t0.5 -6q0 4 -2 14q2 -10 2 -12q-6 32 -13 47l4 -10q-3 8 -5 12q-5 15 5 33q6 13 25 20q20 5 33 -5q12 -8 20 -25q6 -15 9 -30q17 -71 -1 -154q-16 -76 -54 -150q-33 -68 -88 -133q-46 -56 -100 -93
q-25 -16 -54 -27q-5 -2 -19 -5q-33 -5 -51 2q-30 10 -50 35q-14 18 -18 27q-10 23 -13 30q-3 9 -10 42q-4 28 -6 57q-2 59 8 108q9 53 23 94q30 89 74 156q58 84 113 134q44 37 70 49q20 11 40 16l15 3q18 3 33 1q-2 0 -5.5 0.5t-4.5 0.5q12 0 23 -3q-1 0 -4 0.5t-5 0.5
q6 0 7 -1q6 0 13 -4l-8 3l12 -3l22 -8q4 -2 9.5 -6t8.5 -6l12 -11q20 -21 41 -69z" />
    <glyph glyph-name="P" unicode="P" horiz-adv-x="367" 
d="M426 486q16 -33 16 -71q-1 -77 -65 -134q-74 -66 -192 -84l-6 -2l-27 -72q-23 -60 -46 -113q-5 -14 -23 -52l-7 -14q-2 -6 -12 -17l-12 -12q-10 -6 -18 -7q-19 -5 -27 10q-2 3 -3.5 7.5t-2.5 6.5q-2 4 1 25q1 4 2.5 9.5t3.5 9.5q5 12 5 13q-3 -9 -4 -10q8 20 24.5 56.5
t21.5 49.5q12 28 34 84q31 81 55 160q12 35 25 80l12 40q1 3 3 10t4 11q2 11 5 15l6 9q12 18 32 13q19 -4 21 -27q1 -3 1 -10v3q0 -10 -1 -13v-4l-2 -7l-3 -16q-1 -6 -3.5 -15.5t-3.5 -15.5l-15 -63q-9 -27 -13 -42q40 13 48 16q27 12 51 30q14 11 25 25t15 25q5 11 6 21
t0 22q-1 10 -7 25q-6 14 -13 22l-19 18q-9 8 -27 16q-15 7 -36 10q-22 3 -44 0l-19 -3h3q-27 -6 -44 -11q-2 -1 -5.5 -2t-4.5 -3h-2l-6 -3l-15 -6l-2 -1q-3 -2 -4 -1l-6 -2q-6 0 -10 3q-5 -2 -7.5 2.5t0.5 8.5q-2 9 5 16l4 4q2 3 11 10q13 11 36 23q9 6 18 9q3 1 7 3t7 3
q1 1 3 1l2 1l4 2q36 11 75 9q79 -5 128 -54q28 -28 37 -50z" />
    <glyph glyph-name="Q" unicode="Q" horiz-adv-x="448" 
d="M497 517q5 -16 -11 -22q-14 -6 -23 8q-2 4 -6.5 10t-6.5 9h-1q0 1 -1 2l-4 4q-1 2 -8 9l-8 7q0 1 -1 1l-2 2t-3 1t-2 2q-2 0 -3 1l-10 3h2q1 -1 2 -1q-1 1 -7 1h-4q-2 0 -7 0.5t-7 0.5q6 0 7 -1q-2 1 -10 1h2h-7l-8 -2q1 1 4 1q-12 -2 -22 -6q-16 -7 -38 -24q-1 0 -2 -1
q-39 -29 -80 -82q-2 -4 -6.5 -9t-6.5 -8l-19 -26q-43 -62 -61 -107q-29 -69 -42 -155q-7 -58 -1 -107q3 -20 11 -45q3 -7 9 -17l6 -6l3 -2h1h3q8 1 17 5q17 8 29 17q-2 8 -7.5 21.5t-8.5 21.5q-13 39 -24 78q-5 13 2 24.5t20 15.5q12 4 25 -3q11 -6 15 -19q3 -5 7 -17
q11 -23 29 -71q19 20 34 40l21 28q36 52 67 122q21 50 30 104q5 37 1 66q-6 28 -13 44q0 1 -1 2q-4 12 5 33q6 13 25 20q20 5 33 -5q12 -8 20 -25q6 -15 9 -30q17 -71 -1 -155q-15 -73 -54 -150q-33 -68 -88 -132q-32 -38 -51 -55l24 -60q1 -5 14 -37l12 -36l12 -36
q2 -11 5 -19q5 -14 -3 -25q-1 -3 -3 -5q-5 -7 -7 -8q-9 -7 -15 -2q-1 0 -1 1h-6q-12 4 -20 18l-12 21q-7 11 -20 40q-12 25 -34 81l-8 21q-19 -12 -41 -19q-8 -3 -19 -5q-33 -5 -51 2q-30 10 -50 35q-14 18 -18 27q-7 13 -13 29q-4 10 -10 43q-4 29 -6 57q-2 59 8 108
q8 52 23 94q30 90 74 155q55 81 113 134q44 37 70 50q20 11 40 16l15 3q16 2 24 2h-1h1h3l19 -3h-1q2 0 4 -1h1h-1l12 -4q5 -1 22 -7q4 -2 9.5 -6t8.5 -6l12 -12q20 -20 41 -68zM384 400q1 0 1 -2q0 2 -1 2zM386 555h-1h1z" />
    <glyph glyph-name="R" unicode="R" horiz-adv-x="382" 
d="M426 486q16 -33 16 -71q-1 -77 -65 -134q-53 -47 -140 -73l2 -4t3 -4q42 -60 72 -130q14 -36 24 -76q6 -32 7 -40l4 -37q0 -17 -17 -19q-16 -1 -20 14q-2 3 -3 9.5t-3 9.5q-1 2 -2.5 5.5t-1.5 4.5t-2 4v1q0 -1 1 -3q0 2 -1 3l-9 24q0 1 -1.5 4.5t-2.5 5.5l-2 4l-32 64
q-7 14 -37 63q-21 36 -40 62l-3 4l-21 -54q-23 -60 -46 -113q-5 -14 -23 -52l-7 -14q-2 -6 -12 -17l-12 -12q-10 -6 -18 -7q-19 -5 -27 10q-2 3 -3.5 7.5t-2.5 6.5q-2 4 1 25q1 4 2.5 9.5t3.5 9.5q5 12 5 13q-3 -9 -4 -10q8 20 24.5 56.5t21.5 49.5q12 28 34 84
q31 81 55 160q12 35 25 80l12 40q1 3 3 10t4 11q2 11 5 15l6 9q12 18 32 13q19 -4 21 -27q1 -3 1 -10v3q0 -10 -1 -13v-4l-2 -7l-3 -16q-1 -6 -3.5 -15.5t-3.5 -15.5l-15 -63q-9 -27 -13 -42q40 13 48 16q27 12 51 30q14 11 25 25t15 25q5 11 6 21t0 22q-1 10 -7 25
q-6 14 -13 22l-19 18q-9 8 -27 16q-15 7 -36 10q-22 3 -44 0l-19 -3h3q-27 -6 -44 -11q-2 -1 -5.5 -2t-4.5 -3h-2l-6 -3l-15 -6l-2 -1q-3 -2 -4 -1l-6 -2q-6 0 -10 3q-5 -2 -7.5 2.5t0.5 8.5q-2 9 5 16l4 4q2 3 11 10q13 11 36 23q9 6 18 9q3 1 7 3t7 3q1 1 3 1l2 1l4 2
q36 11 75 9q79 -5 128 -54q28 -28 37 -50z" />
    <glyph glyph-name="S" unicode="S" horiz-adv-x="349" 
d="M304 343l-30 -20q-13 -9 -22 4q-8 12 2 22q1 3 5 7l2 2l3 3l5 6q-2 -2 1 2v-1q0 2 1 2l21 27v-1q0 1 2 3q0 1 1 2t2 3q1 1 7 11q4 6 6 12l2 3v2q0 -1 -1 -4l2 6q5 11 6 23q1 2 0 -3v1v3v6v11v2v-4v3l-2 6q0 2 -1 6q-2 2 -2 4l-1 1l-2 4q-2 2 -2 3l1 -1l1 -1q-3 1 -4 4
l-5 4l-2 2l2 -1l1 -1q-4 1 -10 6q-1 0 -3 2l2 -1l1 -1l-5 2l-12 2q2 0 4 -0.5t4 -0.5q-12 2 -23 0q1 0 4 0.5t4 0.5q-16 -1 -31 -9l8 4q-17 -8 -29 -17q1 2 3 3l4 2q-15 -12 -28 -28q2 1 3 4t3 4q-12 -17 -17 -30q1 2 4 9q-1 -3 -9 -31l2 10q-2 -9 0 -34q0 1 -0.5 4.5
t-0.5 5.5q3 -24 12 -45q-1 2 -4 9q15 -31 33 -55q-2 2 -3.5 4t-2.5 4q5 -7 14 -16q41 -46 52 -62q24 -35 35 -76q13 -51 -4 -99q-5 -15 -22 -44q-15 -22 -27 -35q-30 -31 -64 -47q-17 -8 -43 -13q-13 -3 -28 -3t-29 3q-33 4 -65 31q-24 19 -32 54q-6 29 0 65q5 20 11 32
q9 19 19 28l-5 -6q9 15 23 29q11 11 16 14q3 3 7 4q1 2 2 3l-4 -4q2 2 3 2q28 23 69 36q23 6 31 -17q4 -11 -1.5 -20t-15.5 -11q-7 -2 -8 -3l-2 -1l-1 -1l-14 -7l-13 -8l-4 -3l2 1q-2 0 -3 -2t-3 -2q-3 -3 -2 -3l3 5q-1 -3 -6 -8l-1 -1l-5 -7l1 2q0 -2 -2 -3t-2 -3
q-4 -4 -14 -25l3 8q-1 -4 -3 -11.5t-4 -11.5q-3 -7 -5 -23q0 1 0.5 4t0.5 5q-1 -7 -1 -20q0 1 -0.5 4.5t-0.5 5.5q0 -2 2 -16l-2 10q1 -11 6 -22q0 2 -4 9q9 -18 14 -23q-1 2 -7 8q6 -7 13 -13l-8 7q9 -7 19 -11q-9 3 -10 4q16 -6 24 -7q-2 1 -11 1q18 -1 36 0q-2 0 -5 -0.5
t-5 -0.5q16 2 33 9q-1 0 -4.5 -1.5t-5.5 -2.5q17 7 33 19l-8 -6q17 13 37 38l-6 -8q18 25 22 35q0 -1 -1.5 -4.5t-2.5 -5.5q9 23 10 38q0 -1 -0.5 -5t-0.5 -5q3 18 0 37l2 -11q-3 21 -12 41q4 -7 4 -9q-10 26 -32 54l6 -8q-8 10 -26 30.5t-27 30.5q-27 35 -41 78
q-15 39 -9 77q3 26 14 50q11 21 26 37q29 33 69.5 48.5t80.5 1.5q44 -18 64 -51q18 -35 10 -81q-7 -36 -38 -71q-13 -18 -29 -28z" />
    <glyph glyph-name="T" unicode="T" horiz-adv-x="144" 
d="M443 509q1 -10 -6 -19t-17 -11q-22 -6 -34 -6q-16 0 -24 1q-10 0 -27 0.5t-25 0.5q-78 3 -93 4q-12 -44 -30 -98q-37 -119 -50 -153q-22 -64 -50 -142q-37 -102 -39 -107l-6 -18q-10 -21 -12 -23l-5 -8l-2 -3l-1 -1q-1 -3 -5 -7h-1v-1l-8 -6q-10 -9 -29 -4q-13 5 -22 17
q-9 17 -4 29v1q0 1 1 1q0 4 2 18q3 11 11 33l38 101l49 133l52 143q9 23 25 69l9 29q-2 0 -7 0.5t-8 0.5q-61 2 -92 5q-35 2 -52 5q-4 1 -11.5 2t-11.5 3q-10 2 -15 5l-9 6q-9 7 -9 16q0 11 9 16q4 4 10 6q9 4 17 5q15 3 30 3q11 2 52 2l125 -2q1 3 7 11l7 8q11 12 27 7
q15 -5 20 -19q0 -7 1 -9l90 -3l46 -2q15 0 23 -1q5 0 31 -7q23 -8 23 -31z" />
    <glyph glyph-name="U" unicode="U" horiz-adv-x="381" 
d="M143 477l4 2q9 4 18 -3.5t9 -16.5v-5v-3v2l-1 1l1 -6q0 -6 -8 -22q-1 -2 -4.5 -9.5t-5.5 -12.5l3 7l-18 -45l3 8q-4 -9 -10 -25.5t-9 -24.5q-26 -72 -39 -165q0 1 0.5 5t0.5 6q0 -5 -1.5 -15t-1.5 -11q0 2 0.5 5.5t0.5 5.5q-5 -44 1 -80l-2 11q6 -36 13 -51
q-1 2 -2.5 5.5t-1.5 4.5q6 -13 12 -22l-6 9q6 -9 15 -15l-9 6q16 -9 18 -10q-2 1 -5.5 2.5t-4.5 1.5q14 -6 30 -8l-11 2q11 -3 27 -1q-2 0 -6 -0.5t-5 -0.5q15 2 25 7q-1 -2 -5 -3t-5 -2q16 7 26 16l-8 -6q5 4 10 9t11 11.5t10 10.5q-6 -6 -7 -8q15 20 48 84q4 10 13 27
t14 26q21 45 24 50q-3 -3 -4 -8q4 8 9.5 24.5t8.5 24.5q4 9 27 79q1 2 9 32t15 44l-3 -8q7 19 10 24l-3 -7l9 33q9 35 11 47q2 14 4 17q7 22 18 28q-2 -3 -6.5 -8.5t-6.5 -8.5q9 24 24 25l-14 -14v1q5 18 24 13t14 -24l-9 22q7 -4 9 -11q0 -1 1 -2l1 -1v-1q4 -10 2 -22
q-1 4 -3 13t-4 13q7 -8 9 -21v-4q0 -1 -2 -15q-7 -32 -23 -96q0 2 0.5 4.5t0.5 3.5l-3 -21q0 -3 -2 -13q-19 -73 -38 -122q-18 -48 -26 -72q-10 -32 -26 -74q-15 -44 -32 -80q-15 -28 -40 -60q-19 -23 -48 -40q-28 -17 -64 -20q-17 -1 -35 3q-14 2 -21 5q-29 9 -50 30
q-38 35 -45 110q-5 30 -1 54q0 19 5 41q3 22 24 93q21 63 43 118l12 26q2 3 15 25l15 23q16 18 20 20l4 2l-5 -3l1 1z" />
    <glyph glyph-name="V" unicode="V" horiz-adv-x="361" 
d="M608 556q4 -10 1 -24q-1 -8 -9.5 -11t-15.5 1l-1 1q-2 0 -2 1q-5 0 -6 1q-2 0 -10 2h1q-2 0 -3 1h-8l-14 -3l-18 -6q-17 -8 -26 -15l-23 -20q-40 -38 -91 -103q-37 -48 -76 -108q-26 -39 -118 -189q-8 -11 -21 -34t-20 -35q-3 -4 -13.5 -20t-17.5 -24q-11 -12 -28 -12
q-14 -2 -25 5q-10 5 -17 22q-7 19 -7 61l2 52q1 32 3.5 96t3.5 96l8 97q2 27 6 52q7 41 20 48q9 4 18 0q7 -4 10.5 -11.5t5 -13.5t2 -17t1.5 -15q2 -34 2 -52q0 -1 0.5 -46t-0.5 -45q0 -30 -2 -92l-3 -77l83 133q64 95 106 153q65 85 117 131q52 47 97 55q17 3 21 2
q4 0 18 -2q14 -3 26 -9q12 -4 17 -14l3 -7q-1 1 -2 5q0 -1 1 -2q3 -3 4 -8zM565 527q-1 1 -2 1q1 0 2 -1zM579 525h-1h1z" />
    <glyph glyph-name="W" unicode="W" horiz-adv-x="573" 
d="M282 352v1v-1zM316 352q-1 0 -1 2v1h-1q2 -2 2 -3zM282 353l2 2zM817 564l4 -8q3 -8 1 -24q-1 -8 -9.5 -11t-15.5 1l-1 1q-2 0 -2 1q-5 0 -6 1q-2 0 -10 2h1q-3 0 -4 1h-7l-15 -3l-18 -6q-11 -4 -25 -15q-12 -9 -23 -20q-40 -38 -91 -103q-32 -42 -77 -108
q-44 -68 -118 -189q-26 -46 -41 -69q-20 -33 -30 -44q-10 -12 -28 -12q-14 -2 -25 5q-13 8 -17 22q-9 23 -7 67q0 5 0.5 14t0.5 15q2 97 4 117q-24 -44 -53 -88q-58 -91 -86 -130q-1 -2 -6 -7q-8 -11 -20 -14q-16 -5 -29 4q-10 5 -17 22q-7 19 -7 61l2 52q1 32 3.5 96
t3.5 96l8 97q2 27 6 52q7 41 20 48q11 4 18 0t10.5 -11.5t5 -13.5t2 -17t1.5 -15q2 -34 2 -52q0 -1 0.5 -46t-0.5 -45q0 -30 -2 -92l-3 -85q27 44 73 112q3 5 18 29t24 36q21 29 23 32q10 14 16 20q7 9 10 11q0 1 1 1h-1h1q0 1 1 1h-1l1 1q1 0 1 1q5 5 14.5 5.5t15.5 -5.5
v-1q1 0 1 -1q-4 3 -4 4l2 -2l2 -2l1 -1q1 -1 1 -2q0 1 -1 2q4 -6 6 -12q1 -2 1.5 -5l1 -6t0.5 -5q3 -24 4 -28q2 -15 2 -68q1 -25 -1 -77v-33q37 62 83 134q64 95 106 153q65 85 117 131q53 47 97 55q17 3 21 2q4 0 18 -2q14 -3 26 -9q12 -4 17 -14l3 -7q-2 2 -2 5
q0 -1 1 -2zM778 527l-2 1q1 0 2 -1zM791 525h-1h2h-1z" />
    <glyph glyph-name="X" unicode="X" horiz-adv-x="425" 
d="M588 490zM624 498q3 -15 -10 -21q-14 -6 -21 7l-2 4l-1 1l-1 1q1 -1 0 -1q0 1 -0.5 1t-0.5 1v-1q-2 2 -5 3l-1 1q-2 0 -3 0.5t-3 0.5h-1q-6 1 -12 0l-16 -2q1 0 4 0.5t5 0.5q-12 -1 -23 -6q-15 -7 -34 -21q-26 -21 -52 -45q-69 -61 -149 -162q18 -47 34 -93q3 -8 33 -95
q11 -36 14 -47l7 -29q1 -5 -2 -28q-2 -12 -7 -20q-4 -6 -13 -10q-12 -5 -22 -2q-9 2 -14 9l-9 11l-4 4l-7 9l-4 10q-1 1 -1 3l-11 28q-3 9 -8.5 28.5t-9.5 29.5q-12 37 -38 111l-9 -13q-50 -66 -89 -126q-13 -19 -37 -59q-1 -1 -8 -13t-11 -17q-10 -13 -13 -15
q-10 -14 -34 -14q-16 0 -28 16q-11 20 -5 39q0 1 4 10.5t7 14.5l9 16l21 33q40 62 46 70q52 75 114 151l-1 2v2l-39 102q-4 9 -10 25.5t-9 24.5l-4 12q-2 2 -3 6t-2 6l-9 25q-4 22 15 37q11 6 25 3q11 -3 15 -10l4 -5l1 -1q0 1 -1 2q8 -12 11 -19l11 -19l-3 4l9 -15
q1 -2 3.5 -6.5t3.5 -6.5l12 -24l23 -51l9 -23q10 10 31 33.5t34 36.5q40 40 61 59q38 37 78 60q31 17 45 21q31 8 51 3q23 -5 41 -20q14 -14 19 -38z" />
    <glyph glyph-name="Y" unicode="Y" horiz-adv-x="375" 
d="M588 490zM624 498q3 -15 -10 -21q-14 -6 -21 7l-2 4l-1 1l-1 1q1 -1 0 -1q0 1 -0.5 1t-0.5 1v-1q-2 2 -5 3l-1 1q-2 0 -3 0.5t-3 0.5h-1q-6 1 -12 0l-16 -2q1 0 4 0.5t5 0.5q-12 -1 -23 -6q-15 -7 -34 -21q-26 -21 -52 -45q-82 -73 -168 -186q-2 -3 -52 -70
q-50 -66 -89 -126q-13 -19 -37 -59q-1 -1 -8 -13t-11 -17q-10 -13 -13 -15q-10 -14 -34 -14q-16 0 -28 16q-11 20 -5 39q0 1 4 10.5t7 14.5l9 16l21 33q40 62 46 70q53 77 118 155l4 5q0 1 -0.5 1t-0.5 1q0 7 -2 23q-12 74 -37 132q3 -7 4 -9l-9 22q0 1 -1 2t-1 3l-4 10v1
l-8 19q-4 16 9 26q10 10 26 2q26 -15 45 -48q15 -22 27 -54q7 -17 17 -51q0 -3 1 -4l52 56q40 40 61 59q38 37 78 60q31 17 45 21q31 8 51 3q23 -5 41 -20q14 -14 19 -38z" />
    <glyph glyph-name="Z" unicode="Z" horiz-adv-x="384" 
d="M296 547h1h-1zM581 531q-3 -6 -7 -10q-1 -2 -7 -8q-4 -3 -10 -5l-4 -3q-5 -3 -15 -11q-32 -24 -60 -51q-62 -54 -130 -132q-60 -65 -131 -156q-2 -3 -15 -20t-19 -26q-30 -39 -53 -76q66 5 124 -7l35 -8q6 -2 12.5 -4.5t14.5 -5.5t12 -5q28 -16 33 -20l11 -10q3 -3 7 -9
t5 -7q8 -15 -2 -28t-27 -9q-14 3 -16 4l-24 8q1 -1 8 -3q-9 4 -50 16q-17 4 -51 10q-57 7 -103 0q-31 -4 -61 -15q-8 -5 -15 -5q-8 -2 -14 1h-1q-12 3 -23 18q-8 14 -4 30q4 13 14 20q4 11 14 24l21 32q9 13 26 37.5t21 29.5q53 70 115 143q78 88 118 128q67 67 112 104l5 4
h-50q-16 0 -54 -2h-14q-3 0 -7 -0.5t-6 -0.5t-7 0.5t-9 0.5q-1 0 -2 -1h-3h-4q-20 -3 -26 14q-3 8 1.5 16t12.5 10q2 0 5 1q2 1 4 1h1q1 1 3 1q3 1 4 1q0 -1 -1 -1q1 0 1 0.5t1 0.5q1 1 3 1q4 2 12 5l30 7q56 9 111 12q19 1 53 1q27 0 35 -2q1 0 4.5 -0.5t5.5 -0.5
q20 5 30 -17q4 -13 0 -22z" />
    <glyph glyph-name="a" unicode="a" horiz-adv-x="322" 
d="M270 407q3 -17 1 -51q0 -28 -1 -41l-10 -148q-3 -25 -5 -75l-4 -38q-1 -4 -2 -13t-2 -13.5t-3.5 -11t-7.5 -11.5q-7 -7 -17 -7t-17 7t-9.5 15t-4 22.5t-1.5 17.5q-2 30 -2 41q0 25 2 73q-30 -2 -36 -4q-1 0 -15 -2l-52 -92l-20 -36q-8 -16 -16 -25q-16 -16 -37 -7
q-21 8 -21 31q0 14 13 34q1 2 10 18l20 37l87 151l42 75l11 20q4 7 12 17q10 14 17 21l5 5q11 15 29 16q12 0 22 -7.5t12 -18.5zM193 277l-20 -40q3 1 9 2t9 2v8z" />
    <glyph glyph-name="b" unicode="b" horiz-adv-x="368" 
d="M257 357l-2 2zM260 349v1v1v1v-3zM316 178q3 -20 0 -39q-3 -13 -11 -31q-10 -23 -37 -45q-48 -41 -110 -53q-47 -9 -104 -3q-5 -4 -16 -7q-20 -6 -32 13q0 2 -2 4q-6 13 -3 28l3 9v1q1 1 1 3q2 7 7 13l8 19q20 47 28 68q19 48 48 126q20 53 24 64l13 34l2 4h-3
q-16 -4 -21 12q-5 14 12 20l31 8q11 11 26 4q2 0 4 -2q27 0 44 -4q53 -9 76 -43q12 -17 10 -42q-1 -11 -8 -30q-1 -1 -1 -2q-1 -2 -4 -9q-1 -1 -3 -4.5t-3 -5.5q-19 -24 -37 -35q19 -11 30 -22q24 -28 28 -53zM259 355v1v-1zM225 377q-4 2 -12.5 4t-12.5 3l-9 2l-2 -8
q-1 -4 -3 -11.5t-3 -11.5q-7 -25 -13 -44q-1 -9 -5 -18q2 0 5.5 0.5t4.5 0.5q17 3 39 11q3 1 22 12l9 9l6 6l3 4q1 0 1 1q3 3 4 6q0 1 1 2v3v1h1q-1 0 -1 1v2v1v-1q0 1 -1 2l-2 3l2 -2l-2 2v1q-1 0 -2 1l-1 1q-1 2 -3 3l-1 1q-2 2 -9 5q-4 3 -10 5q0 1 -1 1q-1 1 -5 2z
M224 116l18 18q2 2 3.5 6t3.5 6q3 10 4 13v10l-3 10q-1 2 -8 14v1h-1l-1 1q-3 4 -7 7l-2 2q-1 0 -3 2t-4 2q-12 7 -14 8q-2 2 -7 4h-1l-2 1l-7 3q-12 -3 -36 -5q-5 -1 -17 -1l-19 -54q-21 -57 -28 -74q-2 -2 -2.5 -6t-2.5 -6q27 -2 44 1q34 6 49 13q18 9 43 24z" />
    <glyph glyph-name="c" unicode="c" horiz-adv-x="306" 
d="M287 299q-3 -6 -11 -4q-5 4 -4 10q5 20 5 36q0 12 -1 17q-2 6 -5 10q-1 3 -4 6l1 -1l-3 3l-5 5h1q-1 0 -2 1l-4 2l2 -1q-6 2 -7 2q-1 1 -2 1h1v0h-8q6 0 8 1l-12 -2q1 0 4 0.5t4 0.5q-12 -1 -23 -6q1 1 8 3q-11 -4 -25 -15l7 6q-27 -22 -44 -44q2 2 2 4l3 3
q-23 -29 -36 -64l3 9q-5 -11 -11 -31t-9 -27q-9 -29 -16 -70l2 10q-5 -31 -1 -56l-2 10q3 -21 10 -36l-4 9q2 -4 6 -10t5 -8l-6 8q8 -12 16 -16q-2 1 -4 3t-4 3l20 -13q10 -4 16 -10l3 -4q-7 6 -3 3q4 -1 6 -5l-12 7q1 0 13 -5l-13 3q2 0 4 1h1q3 0 -1 -1q-4 -2 -4 -1
q2 0 4 2t3 2l3 3l-2 -2q1 1 2 1l6 6l6 6l3 4l9 15l14 26l4 8q0 1 -1 -2v1q7 18 27 15q8 -2 13 -10.5t2 -16.5l-6 -14q-30 -70 -80 -90q2 1 5.5 2.5t4.5 3.5l-10 -8q4 6 10 10q-7 -11 -20 -16q-18 -8 -42 -2q-24 7 -42 29q-17 18 -27 42q-4 8 -11 50q-4 39 7 83q4 25 18 66
q30 79 70 124q85 89 145 48q34 -23 38 -58q3 -29 -18 -75z" />
    <glyph glyph-name="d" unicode="d" horiz-adv-x="312" 
d="M290 374q26 -37 21 -84q-3 -31 -10 -51q-17 -53 -44 -92q-41 -59 -101 -95q-35 -21 -77 -35q-26 -8 -41 -11l-11 -2l-11 -4q-11 -2 -17 1q-10 0 -13 1q-1 0 -4.5 1.5t-5.5 2.5q-21 6 -24 27q-4 20 16 34q20 10 23 11h2q1 2 2.5 6t2.5 6l28 68q19 48 48 126q20 53 24 64
l8 21l-2 2q-5 10 -2 20q2 9 12 15q1 1 11 7l3 8q9 19 30 9q2 0 5 -3q43 8 83 -13q22 -10 44 -40zM192 185q22 32 34 59q10 26 15 51q1 11 0 21q-1 5 -4 15q-2 2 -4 6.5t-3 6.5l-11 10l-12 7q-9 4 -23 7h-20l-3 -13q-7 -25 -13 -44q-27 -90 -49 -147l-24 -63l11 4
q47 24 60 35q13 10 46 45z" />
    <glyph glyph-name="e" unicode="e" horiz-adv-x="335" 
d="M356 412q5 -5 4 -12.5t-7 -10.5q-2 -2 -5.5 -3t-5.5 -2q-2 -2 -13 -5q-14 -2 -17 -2h-23q-8 0 -24 0.5t-24 0.5q-31 0 -47 -1h-6q-1 -1 -1 -6q-8 -41 -9 -44q-2 -15 -6 -25l21 -3q32 -3 39 -4q3 0 19 -3t20 -3q17 -3 17 -18q1 -16 -17 -18q-3 0 -37 -4.5t-41 -4.5
q-6 -1 -37 -4v-2q-1 -2 -1 -3q-9 -26 -29 -94l-14 -42q-11 -32 -12 -35l-3 -8h41q36 -2 56 -5l13 -2q7 -1 17 -5t13 -7l2 -1l1 -1q2 -1 4 -3q2 0 3 -2q5 -5 4 -12.5t-7 -10.5l-10 -5q-5 -3 -14 -5q-3 -2 -16 -2h-24q-7 0 -23 0.5t-24 0.5q-32 0 -48 -1l-24 -2h-8
q-11 -2 -22 0q-17 5 -25 20q-10 17 -4 33q4 8 7 24.5t7 24.5q9 26 18 55t20.5 64t17.5 55q4 15 14 44.5t15 44.5l12 37q7 20 9 23l6 11q14 17 32 16q12 -2 18 -8q11 0 18 1q25 1 50 0q24 0 56 -5q4 0 14 -2q12 -2 16 -4q2 -1 14 -8l2 -2l4 -2t4 -3z" />
    <glyph glyph-name="f" unicode="f" horiz-adv-x="335" 
d="M356 418q12 -12 -3 -23q-3 -2 -11 -4q-2 -2 -6.5 -3.5t-6.5 -2.5q-14 -2 -17 -2h-23q-16 0 -48 2q-15 0 -47 -2h-6q-1 -1 -1 -6q-7 -37 -9 -43q-2 -13 -6 -26l21 -2q66 -11 78 -11q17 -2 17 -18q1 -15 -17 -17q-3 0 -37 -5t-41 -5q-36 -3 -37 -3q0 -1 -0.5 -3t-0.5 -3
q-12 -35 -29 -94l-14 -42q-1 -4 -5 -16t-7 -19l-10 -26l-7 -18q-7 -12 -10 -15q-1 -1 -4 -3t-5 -4q-14 -9 -33 -4q-16 4 -25 19q-10 17 -4 33q3 8 6.5 25t7.5 25q4 10 56 173q5 17 15 47l14 42l12 37l2.5 7.5t3 8.5t3.5 8q2 2 3.5 5.5t2.5 5.5q13 18 32 15q12 -2 18 -8
q4 0 9 0.5t9 0.5q17 1 50 1q37 -2 56 -5q10 -2 14 -2q7 -1 16 -5q5 -1 14 -8l2 -2q4 -1 8 -5z" />
    <glyph glyph-name="g" unicode="g" horiz-adv-x="318" 
d="M316 341q4 -21 -3 -42q-3 -10 -13 -10q-13 0 -14 10q-1 1 -1 6q-1 1 -1 6v1l-3 11q0 1 -1 3t-1 3v1q0 1 -1 2l-5 10l-3 4q0 1 -1 1l-8 9l-4 4v-1v1q-5 3 -11 5h1q-1 0 -3 1l-10 3h-8l-7 -2q-2 -1 -5 -2t-4 -3l-15 -16q-29 -39 -49 -87q-22 -52 -31 -114q-5 -27 -1 -48
l3 -13q1 -3 3 -5l2 -2l1 -1q2 0 3 -1q3 0 4 1q5 0 6 1l9 6l20 20q15 19 25 39v1l1 1l-9 3q-2 1 -7.5 2.5t-7.5 3.5q-7 4 -15 15q-7 9 -3 22t14 18q12 5 20 5h10q1 1 8.5 0.5t8.5 -0.5q13 0 37 2q15 1 27 -11q8 -8 10 -22v-1l1 -1q0 -2 0.5 -5t0.5 -5l-3 -20q-1 -2 -2.5 -5.5
t-1.5 -4.5q-23 -55 -48 -87q-3 -3 -8.5 -11t-9.5 -12q-4 -5 -13 -12t-10 -8q-20 -15 -42 -18q-18 -3 -28 -2q-18 3 -19 3q-12 4 -17 7q-24 10 -40 37q-22 38 -17 96q7 95 52 183q20 37 52 75q16 19 38 34q23 14 52 14q29 -2 50 -15q23 -14 33 -38q10 -21 12 -45z" />
    <glyph glyph-name="h" unicode="h" horiz-adv-x="336" 
d="M345 439q16 -14 15 -26q-2 -25 -4 -31q-2 -12 -6 -24l-13 -51q-13 -51 -28 -94l-15 -48t-16 -48q-11 -35 -16 -46q-4 -11 -12 -29t-10 -23q-4 -7 -9.5 -21t-8.5 -20l-10 -20q-6 -10 -10 -14q-2 -2 -4 -3.5t-4.5 -3t-3.5 -2.5q-10 -6 -24 -1q-14 6 -15 17q-3 20 -1 24
l4 11l8 23q3 8 8.5 24t8.5 24q4 13 27 81.5t35 106.5q1 1 1 4h-2l-39 3q-24 2 -41 5l-33 -91q-17 -42 -36 -84q-3 -6 -9 -18.5t-9 -19.5q-1 -3 -11 -20l-8 -13q-2 -2 -7 -5t-6 -4q-11 -6 -23.5 -1t-15.5 17q-4 13 -1 24l3 11l8 21q3 7 8.5 22t8.5 23q8 23 28.5 76t30.5 81v3
l-6 5q-10 10 -6 24q3 12 17 17q12 3 13 3q1 5 9 28q2 6 7 19.5t7 20.5q6 18 11 27q10 18 19 24t21.5 3.5t17.5 -13.5q5 -12 4 -24q0 -1 -0.5 -5t-0.5 -6q-1 -11 -6 -29q-9 -35 -13 -46q0 -3 -1 -4q14 0 21 -1h39q16 0 24 -1l6 17q3 10 14 44q7 21 10 27l9 19q7 15 26 15
q8 0 15 -4z" />
    <glyph glyph-name="i" unicode="i" horiz-adv-x="175" 
d="M127 438q8 15 25.5 10t17.5 -21l-1 1q-1 2 -2.5 5.5t-3.5 5.5q7 -8 9 -14q1 -5 -1 -16q0 -3 -2 -13q-2 -14 -5 -23l-12 -48q-10 -36 -26 -86l-27 -86l-27 -84l-3 -6l-2 -7q-1 -4 -3 -10t-3 -10q-1 -3 -2.5 -8.5t-3.5 -8.5q-8 -14 -25 -19l15 9l-9 -9q-10 -11 -26 -7.5
t-20 19.5q0 2 -2 12l9 -15q-10 14 -11 17q-3 11 0 22l4 11q4 16 7 22l6 19q19 56 59 168q6 14 15 42.5t14 42.5l15 42l8 20l4 10q6 15 21 20q-2 -1 -5.5 -2.5t-5.5 -3.5z" />
    <glyph glyph-name="j" unicode="j" horiz-adv-x="294" 
d="M254 425q10 17 27 9q17 -7 12 -25q-7 -29 -10 -39q-8 -26 -13 -39q-8 -27 -26 -77q-29 -80 -53 -137l-23 -57q-14 -32 -29 -50q-13 -16 -35 -21.5t-41 2.5q-16 7 -25 16q-7 6 -13 16q-9 13 -15 32q-10 29 -10 64q0 20 4 35q1 10 5 18q5 12 15 18q8 4 19 6l-22 -9l4 4
q14 11 27 7q18 -6 19 -20q2 -10 2 -13l-9 22q5 -4 11 -18q1 -4 -1 -24q-1 -2 -4 -16l2 9q-3 -17 -1 -44q0 8 -1 10q3 -21 10 -36q-4 7 -4 9q4 -12 15 -26l-6 7q1 0 2 -2t3 -2q-4 4 -7 5q1 -1 4 -2t4 -3q-3 3 -8 4l8 -2q-1 0 -4 0.5t-5 0.5h10q-2 -1 -9 -1q1 0 9 2
q-1 -1 -8 -3l8 4q-4 -4 -7 -5l7 7q-1 -2 -6 -7q6 6 23 44l-3 -9q2 8 7.5 20.5t8.5 20.5q7 17 20.5 51.5t21.5 52.5q7 16 21 48.5t21 48.5l-3 -7q0 1 26 55q7 16 25 46z" />
    <glyph glyph-name="k" unicode="k" horiz-adv-x="319" 
d="M358 414q1 -12 -15 -37q-4 -5 -12 -14t-12 -15l-37 -39q-12 -14 -39 -38q-37 -35 -81 -72q-4 -3 -8 -5q2 -2 3 -4l2 -4q5 -8 15 -25t16 -26q5 -7 15 -24t16 -26l15 -25q1 -2 3 -6.5t4 -6.5q4 -7 4 -16q3 -10 -1 -19t-15 -11q-5 -2 -20 0q-12 3 -20 14q-3 4 -11 14t-12 16
q-18 25 -34 52l-21 31l-3 -9q-4 -13 -13 -36.5t-11 -30.5l-6 -15t-7.5 -17.5t-8.5 -13.5l-5 -6q-15 -14 -33 -9q-20 5 -25 25v1q-1 1 -1 7t1 9q2 18 5 26q2 8 10 32q17 53 29 85q24 64 35 97q6 14 15.5 42.5t15.5 42.5l7 18q1 2 4.5 9.5t5.5 12.5l9 20q0 -1 -1 -2q4 8 13 14
q9 5 21 5l2 -1h3q6 -2 10 -5q8 -5 12 -16t1 -20l-8 -31q0 -1 -2 -9l-3 -9l-6 -18q-2 -3 -3 -8.5t-2 -8.5l61 57q7 5 13.5 11.5t14.5 14t12 11.5q9 9 21 18q25 18 37 18q11 1 18 -7t7 -18zM152 431h1q-1 0 -1 -1v1z" />
    <glyph glyph-name="l" unicode="l" horiz-adv-x="202" 
d="M134 426q11 8 20 4q11 -5 12 -17v-2v1v-1v-8q-1 -1 -1 -2l-3 -16q0 -1 -0.5 -3t-0.5 -3t-1 -2v-2q0 1 0.5 3t0.5 3q0 -1 -0.5 -3t-0.5 -4l-3 -12l-8 -27q-17 -57 -20 -65q-11 -39 -18 -71q-9 -26 -14 -63l2 9q-11 -67 -9 -76q0 7 -1 9q1 -9 7 -27l-3 9q1 -6 9 -17
q-2 1 -3.5 4t-2.5 4q10 -12 17 -18l-6 5q17 -11 26 -25q5 -6 3 -18q-1 -6 -11 -14q-17 -12 -45 -3q-15 6 -18 9q-8 6 -20 20q-17 21 -22 62q-5 29 16 118q9 40 33 105q24 64 39 95q12 21 16 26q0 1 1 2t2 3l1 1q1 2 7 8q-1 -2 -3 -3z" />
    <glyph glyph-name="m" unicode="m" horiz-adv-x="431" 
d="M419 435v-1v1zM459 442q26 -12 20 -42q-2 -8 -7.5 -22t-6.5 -18q-4 -8 -9.5 -24.5t-8.5 -24.5q-8 -22 -38 -104q-34 -93 -37 -100q-6 -20 -17 -42q-8 -25 -17 -41q-4 -8 -14 -29q-12 -19 -33 -10q-20 8 -15 30q6 31 9 40l24 83q6 20 19 55t17 47q7 25 13 38
q-21 -25 -55 -63q-51 -58 -73 -77l-9 -6q-6 -6 -16 -8q-16 -1 -30 14q-1 3 -4 6q-3 11 -4 13v5q-1 1 -1 3q0 4 -2 14l-3 30q-2 9 -4 43l-3 -9q-8 -19 -21 -58t-21 -58q-3 -9 -38 -95q-12 -27 -21 -44q-4 -9 -14 -12t-18 1q-20 8 -15 31q4 26 12 51q4 13 14.5 47.5t16.5 53.5
l39 117q5 13 16.5 46.5t18.5 51.5l11 31l3 9q2 8 5 11q6 13 22 18q13 3 19 0q14 -3 21 -16q5 -8 5 -18q0 -2 0.5 -6.5t0.5 -6.5q1 -4 4 -28l10 -110q0 -7 2 -21l92 94l57 60l26 27l12 11q1 0 3 2t3 2l1 1q17 17 39 7z" />
    <glyph glyph-name="n" unicode="n" horiz-adv-x="366" 
d="M314 440zM364 444q8 -13 5 -23l-3 -21l-9 -31q-4 -13 -12.5 -39t-12.5 -39q-6 -16 -16 -47.5t-15 -46.5l-32 -99l-15 -46q-2 -4 -4 -11t-3 -10l-4 -11l-2 -5l-2 -6l-8 -13q-9 -9 -22 -10q-7 -3 -18 2q-8 0 -15 4q-14 6 -20 29q-1 4 -1.5 9t-1 10.5t-0.5 8.5q-2 6 -3 18.5
t-2 18.5l-9 64q-5 36 -10 78q-3 -11 -35 -103l-23 -67q-3 -7 -8.5 -24t-9.5 -26q0 1 1 2q-1 -3 -8 -12q0 1 2 3q-14 -17 -36 -12q-11 2 -18.5 12t-6.5 21q1 19 15 53l56 156l33 88q7 19 17 42l8 18q2 10 8 19l7 7q11 12 22 12q15 0 22 -13q6 -9 8 -49l3 -39l8 -76l9 -59
l-2 9q1 -8 3 -23t4 -22l60 177q8 25 26 73l10 25l8 16q0 1 2 3v1v-2q-1 -1 -1 -3q3 11 10 15q7 6 15 6h11q11 -3 15 -12z" />
    <glyph glyph-name="o" unicode="o" horiz-adv-x="318" 
d="M314 299q-4 -12 -16 -10t-13 14v1v3q-1 1 -1 5v1l-3 12q0 1 -1 3t-1 3t1 0l-2 3q-2 6 -5 10l-3 4l-2 2l1 -1l-8 9q-2 0 -2.5 1t-2.5 2q-1 1 -4.5 3t-5.5 3l7 -3q-3 1 -8 2.5t-8 3.5l7 -3l-14 4l8 -2q-9 2 -17 0q2 1 9 1q-9 0 -16 -4q5 1 8 4q-12 -7 -14 -9l7 6
q-6 -5 -23 -24l6 7q-24 -30 -51 -87q1 1 2 5t3 5l-9 -21q1 2 2.5 5.5t1.5 4.5q-24 -59 -31 -116q0 2 0.5 6t0.5 6q-5 -41 -2 -67l-2 11q1 -12 6 -23q-3 9 -4 10q3 -7 9 -15q-2 2 -4 5t-3 4q5 -6 9 -9l-8 6l11 -6l-11 4q2 0 6.5 -1.5t6.5 -1.5q-1 0 -5 0.5t-6 0.5h17
q-2 0 -6 -0.5t-6 -0.5q3 0 6 1l6 2t4 1l-10 -4l18 11l-8 -7q14 10 27 28l-7 -8q25 31 48 83q-3 -7 -4 -9q0 1 7 16q-2 -1 -3 -4.5t-2 -5.5q9 19 12 31q3 6 5 16q6 16 10 23q13 24 43 17q12 -2 20 -13t8 -23q0 -23 -12 -56q-9 -30 -20 -51q-26 -54 -52 -85q-17 -19 -35 -31
q-16 -11 -51 -17q-57 -6 -90 45q-21 35 -19 90q3 38 14 88q24 87 70 150q2 2 9.5 12t10 13t9.5 11t12 12t11.5 8.5t13.5 7.5q30 13 49 10q33 -2 53 -19q-4 4 -7 5q19 -14 28 -29q7 -10 13 -30q12 -35 2 -65z" />
    <glyph glyph-name="p" unicode="p" horiz-adv-x="326" 
d="M348 365q8 -30 -4 -62q-10 -26 -27 -48q-31 -38 -87 -60q-24 -10 -50 -15q-21 -4 -41 -6q-3 -5 -5 -13q-21 -57 -28 -74l-15 -37q-8 -21 -13 -27q-10 -16 -16 -22q-18 -17 -40 -7q-22 7 -22 33q0 13 4 24q0 1 0.5 3t0.5 4q1 8 6 16l10 24q13 27 25 59q4 11 19 51.5
t24 61.5q8 19 22 57q11 36 23 64l-4 -8l2 4t1.5 3.5l1.5 4.5t2 5t3 7t4 7q1 3 6 8l-1 -1l3 4q10 18 28 18q35 5 70 0q20 -3 24 -4q20 -7 30 -15q34 -25 44 -59zM247 287l19 20q5 5 11 17l3 14q1 2 1 8q-1 2 -1 5q-1 1 -1 2q-3 2 -4 7l-8 8q-2 2 -6.5 4t-6.5 3q-6 3 -14 3
q-20 3 -39 3q-1 0 -1 -1v-2q-1 -4 -2 -11.5t-3 -11.5l-12 -42l-18 -60q20 4 43 12q20 9 39 22z" />
    <glyph glyph-name="q" unicode="q" horiz-adv-x="318" 
d="M272 424h-1h1zM312 365q12 -35 2 -65q-4 -12 -16 -10t-13 14v1v3q-1 1 -1 6l-3 12q0 1 -1 3t-1 3v1q0 1 -1 2l-5 10l-3 4q0 1 -1 1l-8 9l-5 4l2 -2l-2 2l-8 4l-11 4l7 -3l-10 3h-8l-8 -2q-1 -1 -3 -2q-1 -1 -3 -2q-10 -9 -18 -18q-27 -38 -47 -83q1 2 2 5t3 5
q-2 -2 -3 -6.5t-3 -6.5q-21 -53 -30 -108q-4 -23 -2 -54q0 -3 4 -14q0 -1 1 -2t1 -3h1l1 -1q0 -1 1 -1h1l2 -1h4q-7 29 -11 49q-3 11 3 23q5 10 18 14q8 3 23 -3q8 -4 13 -18q2 -2 3 -6.5t2 -6.5q12 21 27 53l11 29q4 9 5 17q8 18 10 22q13 24 43 18q12 -3 20 -14t8 -23
q0 -23 -12 -56q-10 -30 -20 -51q-23 -48 -52 -85q-13 -15 -24 -23q2 -30 2 -47q0 -1 0.5 -14.5t-0.5 -14.5l-3 -29q-5 -21 -22 -21q-9 -1 -14.5 5.5t-6.5 15.5q-3 28 -3 29q-1 6 -1 7v7q0 2 -0.5 6.5t-0.5 6.5l-3 26q-8 -2 -10 -2q-57 -6 -90 45q-21 35 -19 90q3 39 14 89
q25 89 70 149q2 2 9.5 11.5t10.5 13.5t9.5 11.5t11.5 11.5t11.5 9t13.5 8q28 11 49 10q26 -2 47 -15q19 -14 27 -29q9 -15 13 -30zM205 174l3 7zM272 424q2 0 3 -2t3 -2q-2 0 -3 2t-3 2z" />
    <glyph glyph-name="r" unicode="r" horiz-adv-x="316" 
d="M319 400q35 -48 2 -109q-21 -41 -77 -68q-10 -5 -28 -11t-24 -9l-26 -10q-10 -5 -21 -6v-1q1 -3 2.5 -8t3.5 -8l11 -31q3 -8 11 -28t12 -31l10 -24q2 -2 4 -6.5t3 -6.5q5 -8 6 -16q0 -11 -3 -18l-7 -11l2 2q-5 -5 -12 -8q-4 -3 -12 -3q-21 0 -31 19q-5 7 -13 23l-21 47
l-13 32l-7 -18l-15 -37q-8 -21 -13 -27q-15 -21 -16 -22q-18 -17 -40 -7q-22 8 -22 33q0 13 4 24q0 2 0.5 4t0.5 4q2 8 6 15l10 24q9 20 25 60q9 21 24 61.5t19 51.5q8 19 22 57q14 42 23 63l-4 -8q3 5 7 17q2 3 4 8t3 7q1 3 6 8l1 1q-1 -1 -2 -3q8 12 22 14q25 12 62 10
q33 -2 59 -14q24 -11 42 -36zM242 307l13 12l7 14q3 6 4 11v8l-2 7q0 2 -2 3.5t-2 3.5l-9 8l-12 7q-10 4 -22 6q-7 1 -22 1h-9q-1 -1 -1 -5q-1 -4 -2.5 -11.5t-2.5 -11.5l-12 -42l-15 -49q3 1 8 2t9 3l38 14q12 5 34 19z" />
    <glyph glyph-name="s" unicode="s" horiz-adv-x="311" 
d="M310 341q0 -42 -32 -52q-21 -6 -27 8q-2 4 0 9q2 6 4 8l-1 -3v2q1 1 1 3l3 8v4v-2v16v-3v2q0 3 -1 4q0 4 -3.5 10.5t-17 15t-34.5 8.5q1 0 -0.5 -0.5t-7 -1t-8.5 -0.5l10 2q-12 -2 -22 -6l9 3q-7 -2 -24 -13l8 6q-11 -7 -18 -18q1 1 3 4t3 4q-9 -12 -12 -20q3 7 4 9
q-3 -6 -5 -22q0 7 1 10q-1 -13 0 -25l-2 10q3 -17 9 -32q0 2 -4 9q6 -13 36 -57q-1 1 -2.5 4t-3.5 4q4 -5 20 -24.5t25 -32.5t16 -27q13 -25 16 -53q3 -30 -13 -58q-18 -33 -53 -52t-71 -16q-3 1 -16.5 3.5t-19.5 4.5q-26 12 -39 23q-28 22 -37 60q-10 34 3 69q16 42 48 57
q15 6 22 3q8 -1 16 -11q16 -19 -3 -38q0 -1 -4 -5.5t-6 -7.5q1 3 5 7l-10 -12l5 6q-1 -1 -5 -8t-6 -11l3 8q-5 -11 -6 -22q1 1 1 8q-1 -10 0 -22q0 2 -0.5 5t-0.5 4q3 -14 4 -16q-1 5 -4 8l12 -20q-1 3 -5 7q8 -12 16 -16q-3 1 -7 5q5 -5 23 -14q-3 3 -8 4q16 -6 25 -7
l-10 2q12 -2 24 0l-10 -2q4 1 11.5 3t11.5 4l-8 -4q14 8 21 13q-2 -2 -4 -3t-4 -3l19 18l-6 -7q1 1 5 8t6 11q0 -2 -4 -9q3 6 5 14l-2 -10q2 11 0 20l2 -10l-3 12t-4 12q0 -2 4 -9q-11 24 -30 47q2 -1 3 -4t3 -4q-58 75 -69 95q-13 28 -17 62q-4 32 14 67q19 36 57 56
q41 18 84 9q30 -7 49.5 -22.5t27 -33t10 -28.5t2.5 -21z" />
    <glyph glyph-name="t" unicode="t" horiz-adv-x="347" 
d="M373 409l2 -9q0 -16 -11 -27q-14 -14 -71 -10l-29 2l-2 -12l-19 -66q-6 -21 -17 -61t-13 -47q-3 -9 -24 -81l-15 -48q-1 -4 -3.5 -11t-3.5 -10q-7 -25 -20 -38q-19 -17 -41 -11q-25 7 -30 30q-4 16 0 33l4 12l8 25q2 9 5 15.5t5 15.5q34 103 66 207q2 4 5 15t4 13l6 16
l2 8q-3 0 -7.5 0.5t-6.5 0.5l-15 2q-34 4 -47 8q-10 3 -14 6q-19 6 -20 25q2 15 18 23t24 8q5 0 7 1h13q14 2 15 2h11q15 0 23 -1h25q5 13 18 21h-1q1 0 2 1q11 9 27 4q16 -7 20 -16q0 -1 0.5 -1t0.5 -1h-1q2 -2 3 -5q1 -1 1 -5q24 0 35 -1h15q24 0 37 -16q7 -7 9 -17z" />
    <glyph glyph-name="u" unicode="u" horiz-adv-x="380" 
d="M151 437q16 16 31 5q15 -8 9 -32q-2 -6 -8 -23t-7 -21l-13 -39q-12 -37 -34 -116t-22 -93q-2 -45 25 -58q11 -2 17.5 -3t15 5.5t13 10.5t10 10.5t6.5 7.5q-1 -1 0.5 1.5t6 9.5t6.5 10q26 46 37 69q12 24 36 77q-3 -9 -4 -10l34 85q15 41 28 72q15 39 48 33q28 -6 19 -39
l-6 -18l-32 -98l-24 -65q-20 -55 -29 -75l4 10q-20 -55 -48 -97q-15 -22 -27 -35q-29 -31 -69 -45q-43 -12 -77 1q-30 14 -40 25q-17 16 -24 42q-3 9 -5 27q-1 7 -1 18q0 17 6 49l20 76q7 24 23 72q3 7 14 35.5t18 44.5q-4 -7 -4 -9q7 20 15 32q9 20 17 30q-2 -5 -5 -8
q1 2 20 26z" />
    <glyph glyph-name="v" unicode="v" horiz-adv-x="354" 
d="M352 407q4 -15 -11 -43l-11 -21q-4 -7 -11.5 -20t-10.5 -21q-15 -27 -40.5 -78t-36.5 -71l-38 -75q-3 -7 -11 -19q-2 -5 -11 -16q-2 -5 -8 -11.5t-7 -8.5l-4 -4q-11 -15 -30 -16q-12 0 -22 7.5t-12 18.5t-2 51v40q2 102 2 150q0 25 2 75q0 7 1.5 21t1.5 16q1 4 1.5 12.5
t1.5 13.5t3.5 11.5t7.5 11.5q7 7 17 7t17 -7q5 -5 8.5 -12.5t4 -12.5l1.5 -15t2 -14l3 -41q2 -34 2 -150v-27q31 71 52 112l39 76q4 7 10 19.5t9 17.5q6 11 10 19q2 1 3 4t2 5q9 14 24 18q12 5 24.5 -2.5t16.5 -20.5z" />
    <glyph glyph-name="w" unicode="w" horiz-adv-x="526" 
d="M524 404q4 -13 -10 -43q-8 -14 -11 -21q-12 -19 -22 -41q-14 -25 -39 -74t-38 -74q-33 -63 -39 -76q-3 -6 -10 -19q-2 -4 -6 -9t-5 -7q-10 -14 -16 -20l-4 -4q-12 -15 -29 -15q-11 -1 -21.5 6.5t-12.5 18.5q-2 8 -2 42q-2 17 0 35q0 72 1 108q-6 -9 -14.5 -27t-14.5 -28
l-38 -75q-1 -3 -3 -6t-4.5 -7t-3.5 -6q-2 -4 -5.5 -9t-5.5 -8q-2 -4 -7.5 -10t-7.5 -9l-4 -4q-11 -15 -30 -16q-12 0 -22 7.5t-12 18.5t-2 50v41q2 102 2 150q0 25 2 75q0 7 1.5 21t1.5 16q1 4 1.5 12.5t1.5 13.5t3.5 11.5t7.5 11.5q7 7 17 7t17 -7q5 -5 8.5 -12.5t4 -12.5
l1.5 -15t2 -14l3 -41q2 -34 2 -150v-27q31 71 52 112q32 63 39 76q4 7 10 19.5t9 17.5q6 11 10 19q2 2 3 5t2 4q9 13 24 18q12 5 24.5 -2.5t16.5 -20.5q4 -15 -11 -43l-11 -21q-1 -1 -2 -4q0 -2 0.5 -3t0.5 -3q0 -1 1.5 -14.5t1.5 -20.5q2 -46 2 -68v-70v-8q28 65 53 113
l38 76l20 37q3 6 10 19q4 7 5 9q9 13 24 18q12 5 24 -2.5t16 -20.5z" />
    <glyph glyph-name="x" unicode="x" horiz-adv-x="394" 
d="M318 401q1 -7 -3 -14q-1 -5 -6 -11q-3 -8 -11 -22q-4 -8 -13.5 -22t-13.5 -20q-11 -19 -55 -83l15 -30l36 -72q4 -6 10 -18l9 -18t10 -19q1 -3 4.5 -11.5t5.5 -13.5q5 -16 -4 -27q-4 -8 -12 -13q-24 -15 -44 5q-10 11 -28 47l-20 39q-6 10 -15.5 30.5t-14.5 30.5
q-76 -113 -98 -149q-8 -14 -23 -17.5t-29 4.5q-13 7 -17 23t4 28q7 10 25.5 39.5t29.5 45.5l73 104l-3 6l-33 73q-9 23 -17 38q-7 19 -9 26l-2 9q-1 2 -1 9q0 2 0.5 5.5t0.5 4.5q3 12 15 16q8 4 21 -1q-2 1 -3 2l6 -4q4 -2 7 -5q2 -2 2 -3l8 -8q6 -7 15 -25l21 -40l20 -39
l46 57q5 5 14 17t15 18q3 2 6 5t5.5 6t4.5 5q1 1 5 4.5t7 5.5q2 1 12 4q9 2 15 -2.5t7 -13.5v-3q0 -4 0 -3z" />
    <glyph glyph-name="y" unicode="y" horiz-adv-x="299" 
d="M338 401q1 -7 -3 -14q-1 -5 -6 -11q-3 -8 -11 -22q-4 -8 -13.5 -22t-13.5 -20q-30 -48 -98.5 -147.5t-102.5 -154.5q-8 -14 -23 -17.5t-29 4.5q-13 7 -17 23t4 28q7 10 25.5 39.5t29.5 45.5l72 103l-6 12q-7 13 -18 37.5t-15 33.5q-9 20 -17 43l-3.5 7t-3.5 8q-4 7 -3 16
q0 5 1 6q2 18 13 24q14 8 28 0l9 -6q6 -3 13 -16l9 -16q17 -31 37 -70q2 -2 4 -6.5t3 -6.5q14 20 44 56q5 5 14 17t15 18l16 16q1 1 5 4.5t7 5.5q2 1 12 4q9 2 15 -2.5t7 -13.5v-3q0 -4 0 -3z" />
    <glyph glyph-name="z" unicode="z" horiz-adv-x="336" 
d="M367 414h2q8 2 13.5 -3t2.5 -13v-1v0q-1 -1 -1 -2q0 -3 -4 -8l-5 -5q-6 -8 -10 -12l-5 -6v-1l-2 -2q-12 -15 -13 -16q-23 -27 -45 -51l-87 -93q-15 -15 -41 -44.5t-37 -41.5q-6 -7 -18 -20t-18 -21q9 0 27 -2q7 0 23 -2q14 -1 34 -5.5t33.5 -8t14.5 -3.5q18 -6 13 -21
q-2 -17 -19 -17q-1 0 -46.5 -2.5t-48.5 -2.5h-32l-65 -3q-14 -1 -23 9t-10 25v5v3q2 14 12 26l3 4l21 23q71 80 143 155q40 43 90 88l18 15h-8q-29 0 -77.5 4.5t-57.5 7.5q-18 2 -20 19q0 18 20 20l64 7q64 7 70 7t17 0.5t16 0.5q21 2 30 1q16 0 26 -13h2h-2z" />
    </font>
</defs>
</svg>
